<svg xmlns="http://www.w3.org/2000/svg" viewBox="-4.0 0 340.9 100.0" height="48">
  <path d="M558 291Q563 277 565.5 259.5Q568 242 568.0 224.0Q568 206 565.5 188.5Q563 171 559 158Q543 102 495.0 64.5Q447 27 385.5 10.0Q324 -7 258.5 -2.0Q193 3 142 31Q110 49 87.0 75.0Q64 101 48 133Q42 144 40.5 158.5Q39 173 43.0 186.5Q47 200 56.0 210.5Q65 221 81 225Q91 227 103.5 227.0Q116 227 128.0 223.5Q140 220 150.0 212.5Q160 205 166 192Q177 171 197.5 153.5Q218 136 241 125Q274 114 307.5 116.0Q341 118 368.5 131.0Q396 144 413.0 166.5Q430 189 430 218Q430 242 423.0 257.5Q416 273 403.5 283.5Q391 294 373.5 301.0Q356 308 335 313Q311 318 286.5 320.0Q262 322 237.0 325.0Q212 328 188.0 333.0Q164 338 141 348Q95 367 71.0 406.0Q47 445 42.5 490.0Q38 535 53.0 579.5Q68 624 101 656Q133 685 177.5 697.5Q222 710 276 712Q306 713 336.5 710.0Q367 707 395.5 700.0Q424 693 448.5 682.0Q473 671 491 656Q504 646 517.0 629.5Q530 613 537.0 594.5Q544 576 541.5 559.0Q539 542 520 530Q504 520 489.5 521.5Q475 523 462.0 530.5Q449 538 437.0 548.0Q425 558 415 566Q388 586 348.0 593.0Q308 600 273 596Q251 593 232.0 586.0Q213 579 199.5 567.0Q186 555 178.5 537.5Q171 520 173 498Q174 482 182.5 471.0Q191 460 203.5 453.0Q216 446 231.0 442.0Q246 438 261 436Q306 430 351.0 427.0Q396 424 439 407Q483 390 514.0 361.0Q545 332 558 291Z" fill="#7CA7D8" transform="translate(0.000, 80.000) scale(0.10000, -0.10000)"/>
  <path d="M320 450Q349 438 373.0 415.5Q397 393 414.5 364.0Q432 335 441.5 301.5Q451 268 451 234Q452 183 427.5 138.0Q403 93 348 69Q306 52 261.5 43.5Q217 35 169 32V-151Q169 -157 167.5 -162.0Q166 -167 166 -172Q164 -182 161.5 -190.0Q159 -198 155 -207Q151 -213 147.0 -218.0Q143 -223 138 -228Q114 -240 88 -233Q72 -232 62 -223Q53 -214 49 -204Q45 -194 42 -181Q41 -176 40.5 -171.5Q40 -167 40 -162V395Q40 401 40.5 407.5Q41 414 42 421Q43 433 48 445Q57 470 85.0 479.0Q113 488 148 487Q172 486 197.5 482.0Q223 478 246.5 472.5Q270 467 289.0 461.0Q308 455 320 450ZM322 234Q326 262 315.5 281.5Q305 301 286.0 313.5Q267 326 242.5 333.0Q218 340 194 343Q191 344 184.5 344.0Q178 344 170 344Q170 312 170.5 282.5Q171 253 170 219V152Q193 153 218.5 157.0Q244 161 266.0 170.0Q288 179 303.5 194.0Q319 209 322 234Z" fill="#7EAF5D" transform="translate(60.800, 80.000) scale(0.10000, -0.10000)"/>
  <path d="M157 421Q187 436 220.0 442.5Q253 449 285.5 445.5Q318 442 348.0 428.5Q378 415 404 390Q430 364 444.0 333.0Q458 302 464 264Q468 238 477.0 216.0Q486 194 496.5 172.0Q507 150 516.5 128.0Q526 106 532 82Q537 59 528.5 37.5Q520 16 494 11Q479 8 465.5 13.5Q452 19 441.0 29.5Q430 40 421.5 52.5Q413 65 406 76Q383 46 356.0 29.5Q329 13 291 8Q259 4 230.0 6.0Q201 8 168 17Q125 28 97.5 55.5Q70 83 55.5 119.5Q41 156 40.0 198.0Q39 240 50 281Q64 335 92.0 369.0Q120 403 157 421ZM182 304Q168 290 160.0 271.0Q152 252 150.5 231.0Q149 210 154.0 189.0Q159 168 170 152Q180 138 204.0 128.5Q228 119 254 117Q284 115 306.5 133.0Q329 151 340.5 178.5Q352 206 351.0 237.5Q350 269 334 295Q322 314 302.5 323.0Q283 332 261.0 332.5Q239 333 217.5 325.5Q196 318 182 304Z" fill="#D16E6A" transform="translate(110.000, 80.000) scale(0.10000, -0.10000)"/>
  <path d="M41 354Q41 366 41.0 381.5Q41 397 42.0 413.5Q43 430 45.5 445.5Q48 461 53 473Q61 491 78.0 497.5Q95 504 115 503Q136 503 148.0 496.0Q160 489 166.0 477.5Q172 466 173.5 451.5Q175 437 175 421Q184 437 199.5 447.0Q215 457 231.0 463.0Q247 469 260.0 471.5Q273 474 275 474Q300 476 320.5 475.0Q341 474 366 466Q382 460 399.0 449.5Q416 439 429.0 425.0Q442 411 446.5 394.5Q451 378 442 360Q428 335 411.0 335.5Q394 336 374 341Q363 343 348.0 350.0Q333 357 322 359Q288 364 262.0 354.0Q236 344 217 330Q195 313 179 291V147Q179 120 178.5 91.0Q178 62 170.5 38.5Q163 15 145.5 0.5Q128 -14 95 -12Q77 -11 63.0 5.5Q49 22 46 38Q44 53 43.0 74.0Q42 95 41.5 118.0Q41 141 41.0 164.5Q41 188 41 208Z" fill="#ECB575" transform="translate(167.500, 80.000) scale(0.10000, -0.10000)"/>
  <path d="M239 230Q261 207 271.5 196.5Q282 186 286.5 181.0Q291 176 293.0 175.0Q295 174 300.0 169.0Q305 164 316.0 153.5Q327 143 349 120Q367 102 378.5 78.5Q390 55 376 28Q368 14 358.0 8.5Q348 3 336.5 4.0Q325 5 312.5 11.0Q300 17 288 26Q265 43 244.0 65.5Q223 88 210 100Q201 109 199 112Q197 114 195.0 115.5Q193 117 191 119Q184 126 176.0 133.0Q168 140 160 148V109Q160 98 161 93Q161 83 160 78Q157 67 157 57Q156 52 155.0 47.5Q154 43 152 38Q151 36 150.5 35.0Q150 34 150 32Q149 30 148.5 29.0Q148 28 147 26Q142 16 131 7Q112 -4 84 1Q69 4 61 12Q52 18 49 29Q47 34 45.5 39.5Q44 45 42 50Q40 55 40.0 59.5Q40 64 40 67V636Q40 642 40.0 648.0Q40 654 41 660Q42 666 43.5 671.5Q45 677 47 682Q51 692 57 698Q62 703 67.5 705.5Q73 708 78 710Q83 711 89.5 711.5Q96 712 102 712Q116 712 130 704Q143 695 149 681Q157 662 157 644Q158 634 159.0 613.5Q160 593 160 583V579Q161 546 161.0 516.0Q161 486 161 451Q160 416 160.0 384.5Q160 353 160 322V311Q168 319 176.0 326.0Q184 333 191 341Q195 344 199 348L210 359Q223 372 244.0 394.5Q265 417 288 434Q313 452 336.5 456.0Q360 460 376 432Q390 405 378.5 381.5Q367 358 349 338Q327 315 316.0 304.5Q305 294 300.0 289.5Q295 285 293.0 284.0Q291 283 286.5 278.5Q282 274 271.5 263.5Q261 253 239 230Z" fill="#7CA7D8" transform="translate(216.300, 80.000) scale(0.10000, -0.10000)"/>
  <path d="M173 80Q172 75 171.5 70.5Q171 66 171 61L165 40Q163 36 162 35L159 29Q154 18 141 11Q117 -1 90 5Q73 7 63 15Q53 22 49 32Q45 42 43 52Q40 62 40 70V630Q40 637 40.5 642.5Q41 648 42 653Q43 660 44.5 665.0Q46 670 48 676Q51 686 59 692Q71 701 82 702Q89 704 95.0 704.5Q101 705 109 705Q123 705 141 697Q155 689 161 675Q171 655 171 638Q172 628 172.5 608.0Q173 588 173 578V574Q175 542 175.0 512.5Q175 483 174 448Q174 414 173.5 382.5Q173 351 173 320V110Q173 106 173.5 102.5Q174 99 174 95Q174 85 173 80Z" fill="#7EAF5D" transform="translate(258.700, 80.000) scale(0.10000, -0.10000)"/>
  <path d="M386 137Q398 140 410.5 141.0Q423 142 433.5 138.0Q444 134 451.0 124.5Q458 115 458 98Q458 86 452.0 75.0Q446 64 437.0 55.0Q428 46 417.0 39.5Q406 33 396 29Q367 16 329.5 9.0Q292 2 252 4Q198 6 148.5 25.5Q99 45 71 90Q45 134 40.0 188.0Q35 242 45 290Q56 348 82.5 384.5Q109 421 146 443Q191 469 247.0 470.0Q303 471 354 448Q388 433 415.0 407.5Q442 382 456 346Q460 337 462.5 324.0Q465 311 466.0 296.5Q467 282 466.0 268.0Q465 254 461 243Q455 225 446.0 215.0Q437 205 423.0 200.0Q409 195 389.5 193.5Q370 192 343 191Q319 190 298.0 190.0Q277 190 255.0 190.5Q233 191 209.5 191.5Q186 192 157 193Q154 173 162.5 158.5Q171 144 186.0 134.5Q201 125 220.0 120.0Q239 115 257 114Q291 112 322.0 119.5Q353 127 386 137ZM343 331Q324 353 303 363Q287 370 269.5 369.5Q252 369 236 364Q207 357 187 334Q185 332 180.0 324.5Q175 317 170.5 309.0Q166 301 164.0 294.0Q162 287 166 287H362Q361 301 357.0 310.5Q353 320 343 331Z" fill="#E8746C" transform="translate(280.200, 80.000) scale(0.10000, -0.10000)"/>
</svg>
